<svg width="16" height="16" viewBox="0 0 16 16" fill="none" xmlns="http://www.w3.org/2000/svg">
<g clipPath="url(#clip0)">
<path d="M0.496582 16.003H4.46533C4.72471 16.003 4.93408 15.7937 4.93408 15.5343V14.5937L6.22158 14.3374C6.40596 14.2999 6.55283 14.1562 6.59033 13.9687L6.85908 12.6187L8.20908 12.3499C8.39346 12.3124 8.54033 12.1687 8.57783 11.9812L8.88096 10.4624L9.28096 10.0624C11.1185 10.6562 13.1403 10.1812 14.5153 8.80616C16.5247 6.79678 16.5247 3.5249 14.5153 1.5124C12.506 -0.496973 9.23408 -0.496973 7.22158 1.5124C5.84971 2.88428 5.37158 4.90928 5.96533 6.74678L0.165332 12.5499C0.077832 12.6374 0.027832 12.7562 0.027832 12.8812V15.5343C0.027832 15.7905 0.237207 16.003 0.496582 16.003ZM1.62783 15.0655L7.45908 9.23428C7.54971 9.14366 7.59658 9.02178 7.59658 8.90303C7.59658 8.78428 7.54971 8.66241 7.45908 8.57178C7.27471 8.38741 6.97783 8.38741 6.79658 8.57178L0.965332 14.403V13.078L6.84346 7.19678C6.97471 7.06553 7.01533 6.86866 6.94971 6.69366C6.34033 5.13116 6.70596 3.35615 7.89033 2.17178C9.53408 0.528028 12.2122 0.528028 13.856 2.17178C15.5028 3.81866 15.4997 6.49366 13.856 8.13741C12.6716 9.32178 10.8966 9.69053 9.33408 9.07803C9.16221 9.00928 8.96221 9.05303 8.83096 9.18428L8.11846 9.89678C8.05283 9.96241 8.00908 10.0468 7.99033 10.1374L7.72158 11.4874L6.37158 11.7562C6.18721 11.7937 6.04033 11.9374 6.00283 12.1249L5.73408 13.4749L4.37471 13.7468C4.15596 13.7905 3.99658 13.9843 3.99658 14.2062V15.0624H1.62783V15.0655Z" fill="#251716"/>
<path d="M13.194 4.8249C13.7409 4.27803 13.7409 3.38428 13.194 2.8374C12.6472 2.29053 11.7534 2.29053 11.2065 2.8374C10.6597 3.38428 10.6597 4.27803 11.2065 4.8249C11.7534 5.3749 12.6472 5.3749 13.194 4.8249ZM11.869 4.1624C11.6878 3.98115 11.6847 3.68115 11.869 3.4999C12.0534 3.31553 12.3503 3.31553 12.5315 3.4999C12.7159 3.68428 12.7159 3.98115 12.5315 4.1624C12.3503 4.34678 12.0534 4.34678 11.869 4.1624Z" fill="#251716"/>
</g>
<defs>
<clipPath id="clip0">
<rect width="16" height="16" fill="white"/>
</clipPath>
</defs>
</svg>
