<svg width="39" height="39" viewBox="0 0 39 39" fill="none" xmlns="http://www.w3.org/2000/svg">
<path d="M19.5 4.875C11.4355 4.875 4.875 11.4355 4.875 19.5C4.875 27.5645 11.4355 34.125 19.5 34.125C27.5645 34.125 34.125 27.5645 34.125 19.5C34.125 11.4355 27.5645 4.875 19.5 4.875ZM19.5 31.6875C12.7798 31.6875 7.3125 26.2202 7.3125 19.5C7.3125 12.7798 12.7798 7.3125 19.5 7.3125C26.2202 7.3125 31.6875 12.7798 31.6875 19.5C31.6875 26.2202 26.2202 31.6875 19.5 31.6875Z" fill="#251716"/>
<path d="M24.0478 15.0637L18.8083 21.3506L16.0954 18.6383C15.6201 18.1624 14.8474 18.1624 14.3721 18.6383C13.8962 19.1142 13.8962 19.8857 14.3721 20.3616L18.0283 24.0178C18.2581 24.247 18.5682 24.3749 18.8906 24.3749C18.9089 24.3749 18.9278 24.3749 18.9461 24.3737C19.2879 24.3585 19.6078 24.1994 19.8272 23.9362L25.921 16.6237C26.3518 16.1063 26.2817 15.3385 25.765 14.9071C25.2476 14.4769 24.4786 14.5463 24.0478 15.0637Z" fill="#251716"/>
</svg>
