<svg id="Layer_2_копия_" data-name="Layer 2 (копия)" xmlns="http://www.w3.org/2000/svg" viewBox="0 0 600 1200"><defs><style>.cls-1,.cls-4{fill:#fff;}.cls-1,.cls-2,.cls-3{stroke:#fff;stroke-miterlimit:10;}.cls-2,.cls-3{fill:none;stroke-width:3px;}.cls-2{stroke-linecap:round;}</style></defs><title>Back_1</title><path class="cls-1" d="M450.93,701.63l4.74-24.74,0-14c-.24-1.1-1.83-6.94-2.42-5-.95,3.13-1.85,21.55-2.83,20.34-1.33-1.65-1-25.37-3.12-28.23l-9.67-17.69h0a46.91,46.91,0,0,0,3,16.36l4.48,12.08,1.75,4.52.35,7.82-.64,6.57.6,5.32Z"/><path class="cls-2" d="M437.65,628.64a45.16,45.16,0,0,0,3.65,8.57c2.67,5.24,2.3,7.57,7.85,15.53,3.67,5.26,8.91,9.65,10.66,14.22a66.12,66.12,0,0,1,.6,7.41c0,4.88,1.14,6.91-1.5,14.21-2,5.36-9.69,14.85-10.2,19.45"/><path class="cls-3" d="M326.74,221.63c2.72,10.28,5.24,14.33,6.28,15.9a41.46,41.46,0,0,0,13.61,12.77c5.3,3.08,10,4.15,19,6l1.31.27c7.37,1.52,7.95,1,15.7,2.72,8.84,1.93,13.27,2.89,16.53,5.23,2.86,2.06,11,8.64,15,16.66s4,17.45,4.33,20.14c2.42,21.65-1.29,27.29-.31,45.46.4,7.47,4,14.62,6.64,42.25,1.25,13.13-.05,29.81,1.31,46.29.41,5-.17,12,1.68,21.48a101.34,101.34,0,0,0,5.58,18.42c3.64,9.57,6.06,19.22,10.88,38.51,9.6,38.4,3,50.32,11.44,79.82a170.07,170.07,0,0,1,5.86,25.11c1.32,8.89.82,10.88,2.52,19.82s2.61,9.18,5,20.93c2.34,11.42,2.44,15.88,1.95,20.09a45.76,45.76,0,0,1-2.79,11.16c-1.75,4.54-2,3.16-10.53,16.23-1.34,2.06-3.06,4.74-5.37,4.7a4.15,4.15,0,0,1-2.8-1.39c-1.68-1.89-.59-4.45-.52-9.38a45.6,45.6,0,0,0-.52-6.7c-.46-3.7-1-5.81-1.75-11.55a24,24,0,0,1-.27-2.93c0-2.19.46-3.81.64-6.57a33,33,0,0,0-.09-6.13c-.13-1-.73-5.37-2-5.47-.35,0-.83.27-1.63,1.85-2.44,4.77-.7,7.44-2.8,11.16a9,9,0,0,1-4.46,4.18,7.34,7.34,0,0,1-5.3,0c-.67-.27-2.27-1-2.51-2.23-.29-1.47,1.49-2.58,2.68-4.08,1.07-1.34,1.54-2.82,1.47-12.24-.06-8.14-.43-9.46,0-13.82a48.79,48.79,0,0,1,1.12-6.7c1.48-6.31,3.42-9.26,4.46-12.27.55-1.57,1.87-6.09-2-19a115.17,115.17,0,0,0-10.61-24.56,311.24,311.24,0,0,1-17.86-39.91c-4.83-13.18-6.84-23.21-10.88-43.25-5.18-25.73-2.76-23.24-7-41-4.75-20-8.87-27.66-13.67-49.67a89,89,0,0,0-4.57-14.08,90.38,90.38,0,0,1-3.08-8.78c-.48-1.64-1-3.25-1.2-4.42"/><path class="cls-2" d="M233.36,389c0-11.71-11.76-40.85-12.8-43.11"/><path class="cls-2" d="M376.28,343.91c-1.48,2-5.36,18.69-6.13,23"/><path class="cls-2" d="M300,641.7c1.55,0,4.58.29,6.83-1.26,6.17-3.66,2.16-8.66,4.28-16.44,3.35-12.3,2.55-11.73,3.67-19.81a33.23,33.23,0,0,1,1-4.53c7.41-26,32.57-43.12,59.4-40.06,14,1.59,23.67,7.45,25.09,7.07"/><path class="cls-2" d="M199.74,566.67c1.42.38,11.12-5.48,25.09-7.07,26.83-3.06,52,14.1,59.4,40.06a33.23,33.23,0,0,1,1,4.53c1.12,8.08.32,7.51,3.67,19.81,2.12,7.78-1.89,12.78,4.28,16.44,2.25,1.55,5.28,1.26,6.83,1.26"/><path class="cls-2" d="M302.28,532.44c-.75-10-.47-11.12-2.89-21.92-3.4-15.26-9.46-28.38-16.89-43.9-9.09-19-16.63-26.3-24.59-37.29-22.32-24.89-20.83-45.7-25.35-49.77"/><path class="cls-2" d="M369,376.59c-2.64,5.49-.64,27.85-23,52.74-8,11-15.5,18.28-24.6,37.29-7.42,15.52-13.48,28.64-16.88,43.9-2.42,10.8-2.14,11.9-2.89,21.92"/><path class="cls-4" d="M298.75,366c-.28,0-.78-.61-1.22-1.95l-.64-2c-8.36-25.91-8.68-25.91-10.2-25.91H286l-.48.5a2.14,2.14,0,0,0-.44,1.69c.32,4.24-.35,7.24-2,9.18-2.45,2.81-6.78,3.08-11,3.35l-2.17.16c-4.78-3.68-6.27-13.08-7.27-19.35-.88-5.56-1.36-8.62-3.78-8.62a2.37,2.37,0,0,0-.69.11c-1.31.43-3,2.29-6.28,5.8-2.29,2.48-6.95,7.55-8.62,7.95-1.3-2.75,1.2-15.39,7.44-37.6,1.5-5.35,1.5-5.35,1-6l-.45-.6h-1.51l-.46.63a50.76,50.76,0,0,0-3.5,6.65c-4.73,9.82-13.52,28.1-24.28,28.1h0a10.64,10.64,0,0,1-4.18-.9c28.92-11,36.27-98.25,39.11-131.92.13-1.58.25-3,.37-4.31l-3-.27c-1.65,18.41-2.32,23-10.61,25.27,9-10.42,4.73-29.93,1.74-43.43-.42-1.91-.82-3.7-1.15-5.34-2.95-14.58-4.89-40.58-3-50.14,3.16-15.62,7.34-20.73,14.28-29.19.95-1.16,1.95-2.39,3-3.71,6.23-7.77,12.63-11.2,20.33-14A62.79,62.79,0,0,1,300,66.27a60.65,60.65,0,0,1,21.9,4.19c8.29,3.15,14.26,6.47,20.25,14.08,8.58,10.91,9.79,16.36,13.37,32.54l.36,1.61c4.84,21.84,2.93,42.48.91,64.33s-4.12,44.5,1,68.9c1.28,6.11,5,15.22,9,24.86,6.69,16.27,15.87,38.55,9.36,41.56-8.75,4-9.86,5.53-10.2,7.75-.09.6-.22,1.43-4.72,3.93-1.81,1-15.76,8.72-24.23,11.82,3.34-6.39,3.56-14.5.5-22.87l-1.76-4.82-1,4.45c-1.31-14.33-3.2-27.08-7.46-41.16-.42-1.38-1.84-4.75-3-7.45-2.78-6.33-2.87-6.33-4-6.33h-.68l-.9,1,.08.72c.12,1,.33,2.45.59,4.33,6.51,46.32,6.62,74,.33,82.36a5.34,5.34,0,0,1-3.52,2.29l-.81.11-.34.74c-1.43,3.09-6.62,6.4-11,7.92l-.06-.06-.76,0c-.76,0-1.22.47-1.9,1.17C300.67,364.76,299.43,366,298.75,366Z"/><path class="cls-4" d="M300,64.77v3a59.1,59.1,0,0,1,21.37,4.09c8,3.06,13.83,6.27,19.6,13.61,8.37,10.64,9.56,16,13.09,32l.35,1.6c4.8,21.61,2.9,42.13.89,63.87-2,22-4.14,44.72,1,69.34,1.31,6.24,5.08,15.42,9.08,25.13,3.89,9.45,7.92,19.23,10,27.1,2.78,10.37.78,12.2.1,12.52-8.86,4.09-10.6,5.88-11.06,8.88a.78.78,0,0,1,0,.16c-.14.19-.87,1-3.94,2.69-5.36,3-14.07,7.57-20.71,10.4,2.07-6.12,1.8-13.3-.88-20.66l-3.52-9.64-.1.46A182.94,182.94,0,0,0,328.64,277c-.55-1.82-2.5-6.3-3.08-7.63-2.76-6.26-3.18-7.22-5.35-7.22h-1.37l-.89,1a3,3,0,0,0-.73,2.41c.12,1,.33,2.46.6,4.35,1.19,8.52,3.68,26.23,4.61,43.15,1.38,25.27-1.41,34.66-4,38.09a3.71,3.71,0,0,1-2.52,1.71l-1.63.22-.68,1.49c-1.19,2.55-5.88,5.58-9.87,7a3.18,3.18,0,0,0-.62-.07h0a4.1,4.1,0,0,0-3,1.61c-.2.21-.61.62-1,.94l-.18-.5-.65-2c-8.69-26.93-8.8-26.93-11.62-26.93l-1.35,0-.89,1a3.55,3.55,0,0,0-.83,2.82c.28,3.76-.28,6.48-1.68,8.08-2,2.34-6,2.6-9.92,2.85l-1.59.1c-4-3.56-5.35-12.2-6.27-18s-1.57-9.88-5.27-9.89h0a3.75,3.75,0,0,0-1.15.19c-1.68.55-3.34,2.3-6.93,6.2a86.94,86.94,0,0,1-6.27,6.37c.05-2.07.48-6,2.16-13.52,1.72-7.68,4.07-16.05,5.48-21.06,1.7-6.07,1.7-6.07.76-7.33l-.91-1.2h-1.5l-1.54,0-.9,1.23a51.92,51.92,0,0,0-3.63,6.88c-4.53,9.4-12.9,26.81-22.56,27.24,10.8-6.9,19.27-24.82,25.74-54.31,6.22-28.37,8.88-59.92,10.3-76.87.14-1.58.26-3,.37-4.3l.18-2-6-.53c0,.62-.11,1.3-.18,2-.91,10.27-1.58,16.74-3.57,20.07a6.73,6.73,0,0,1-1.34,1.62c5.36-11.33,1.67-28-1-40-.42-1.89-.82-3.69-1.15-5.31-2.86-14.15-4.83-40.31-3-49.54,3.08-15.26,7-20,14-28.54,1-1.17,2-2.4,3-3.72,6-7.5,12.21-10.82,19.66-13.49a61.15,61.15,0,0,1,21-3.84v-3m0,0a64.63,64.63,0,0,0-22,4c-8.38,3-14.84,6.77-21,14.44-8.9,11.11-13.93,15.41-17.59,33.55-2,9.77,0,36.23,3,50.72,3,14.88,11.33,42.27-4.84,51.18,15.1-2.46,15.83-5.56,17.82-27.83q.09-1.08.18-2-.09,1-.18,2c-2.45,28.27-9.59,131.07-41.87,135.84a13.7,13.7,0,0,0,8.08,2.92c15,0,25.42-30.49,29-35.36v0c.38,0-11.79,38.49-8.38,43.71a1.08,1.08,0,0,0,1,.53c3.6,0,13.11-13,15.56-13.85a.93.93,0,0,1,.22,0c3,0,1.54,21.89,10.63,28,7.26-.73,18.21.57,17.09-14.34,0-.4,0-.58.08-.58.8,0,6.78,18.72,9.42,26.87.72,2.24,1.67,3,2.64,3,1.93,0,3.93-3,4.35-3,.09,0,.11.12.06.4,4.58-1.27,11.29-5.06,13.16-9.1,17.83-2.47,5.27-79.52,3.87-90.64,0,0,0-.06,0-.06.27,0,4.81,10.25,5.56,12.72,4.67,15.42,6.44,29,7.74,44.75-.21,2.83-.13,4.19.18,4.19s1.25-2.54,2.32-7.34c3.41,9.33,2.62,18.5-2.56,25,7.49-1.47,26.95-12.28,28.43-13.1,11.36-6.33-1.57-4.07,14.82-11.64,11.77-5.44-13.82-50.34-17.52-68.08-10-48,8-88.76-1.89-133.25-3.88-17.52-4.94-23.22-14-34.76-6.27-8-12.54-11.37-20.89-14.55A62.5,62.5,0,0,0,300,64.77Z"/><path class="cls-3" d="M233.34,385.64a159.53,159.53,0,0,0,1.82,25c1.85,12,4.13,17.46,5.24,31.18.6,7.44,1.09,13.53.21,20.93-1.53,12.81-11.3,28.46-23.61,44.37-9.5,12.89-12.49,22.3-15.78,37.77-2.54,11.91.26,13.33-.67,16.8-1.82,6.85-2.52,18.69-4.14,26-4.1,18.56-9.82,35.72-9.6,63.19.1,12.53,1.18,14.11,5.86,49.39,3.51,26.41,5.83,51.93,10.47,103,2.45,26.93,3.23,38,.42,53.58-2.08,11.5-4.26,15.1-9.21,37.25-4.25,19-6.38,28.55-7.12,38.52-1.57,21.18,2.43,37.78,8,60.7,0,0,7.21,29.9,8.37,49,.31,5.18.58,9.55-.84,15.07-1,3.82-1.91,4.86-2.09,8.37-.2,3.88.81,5,1.25,11.3a36.54,36.54,0,0,1,0,7.54,30.71,30.71,0,0,1-2.93,9.63c-7,4.75-9.51,5.26-14.39,11.86-1.72,2-.95,5.63,0,7.41,1.85,1.88,12.51,8.15,20.44,15.11,5,4.4,8.07,9.1,10.89,10,6.55,2,11.57.12,15.29-1.93a13.65,13.65,0,0,0,5.86-5.17c2.17-3.84,1-7.34.42-14.65-.67-8.55.66-7.35,0-14.65-1-10.81-3.79-12.11-2.93-19.26.76-6.3,3-6,3.35-11.72.4-7-2.84-9.35-4.19-17.58-.77-4.75-.42-8.41.42-14.65,4.87-36.06,10.47-60.28,10.47-60.28,7.08-30.65,7.91-29.89,8.37-38.09.34-6.16,0-9.37.7-35.44a98.12,98.12,0,0,1,2.23-20.51c1.59-7,3.09-9.73,5-15.63,2.5-7.64,3-12.23,5.45-34.33,3.41-30.55,2.9-25.19,3.34-29.72,3.6-36.61,2.45-35.14,4.6-53.58,3.29-28,4.93-42.08,9.63-57.35a145.74,145.74,0,0,0,6.7-29.3c.28-2.47.85-8,.84-22.19,0-1,0-2.16,0-3.31"/><path class="cls-2" d="M220.4,831.5c7.65-19.72,8.58-26.82,1.39-42.93"/><path class="cls-2" d="M224.34,1108.58a36.88,36.88,0,0,1-3.22-7.83c-1.6-5.65-.42-5.1-1.73-14.72"/><path class="cls-1" d="M205.3,1103.26s3.11,8.89,4.74,3.55-3.11-7.7-3.41-11.4-4.14-13.23-4.75-18.37l.61,5.14-1.3,6-1.28,3.9-1,2.15-1.7,1.13-1.62,1.05L193.1,1098l-3.71,2.69-3.42,3.55-1.86,2.51-.53,1.77s1.42-3.78,4.83-2.45-.45-1,.59-2.51,1.93-3,4.44-1.93a50.65,50.65,0,0,0,6.37,1.93s-1.16-8.49,1.33-6.26Z"/><path class="cls-2" d="M398,854.17c-.14-10.42-4.67-14-13.66-22.67"/><path class="cls-1" d="M395.16,1103.21s-3.11,8.89-4.74,3.55,3.11-7.7,3.4-11.41,4.14-13.22,4.75-18.36l-.61,5.14,1.3,6,1.28,3.9,1,2.14,1.7,1.14,1.62,1,2.53,1.61,3.72,2.7,3.41,3.55,1.87,2.5.52,1.78s-1.42-3.78-4.82-2.45.44-1-.6-2.52-1.92-3-4.44-1.92a51.72,51.72,0,0,1-6.37,1.92s1.16-8.49-1.33-6.25Z"/><path class="cls-3" d="M310.61,639.22c0,1.15,0,2.26,0,3.31,0,14.18.55,19.72.83,22.19a146.43,146.43,0,0,0,6.7,29.3c4.71,15.27,6.35,29.3,9.63,57.35,2.15,18.44,1,17,4.6,53.58.45,4.53-.06-.83,3.35,29.72,2.47,22.1,2.94,26.69,5.44,34.33,1.94,5.9,3.44,8.59,5,15.63a98.12,98.12,0,0,1,2.23,20.51c.66,26.07.35,29.28.7,35.44.46,8.2,1.29,7.44,8.37,38.09,0,0,5.6,24.22,10.47,60.28.84,6.24,1.19,9.9.41,14.65-1.34,8.23-4.58,10.6-4.18,17.58.32,5.75,2.59,5.42,3.35,11.72.85,7.15-1.95,8.45-2.93,19.26-.67,7.3.67,6.1,0,14.65-.58,7.31-1.76,10.81.41,14.65a13.68,13.68,0,0,0,5.87,5.17c3.72,2,8.73,3.93,15.29,1.93,2.82-.87,5.87-5.57,10.89-10,7.93-7,18.59-13.23,20.44-15.11.95-1.78,1.71-5.41,0-7.41-4.88-6.6-7.41-7.11-14.4-11.86a30.71,30.71,0,0,1-2.93-9.63,38,38,0,0,1,0-7.54c.44-6.34,1.46-7.42,1.26-11.3-.18-3.51-1.11-4.55-2.09-8.37-1.42-5.52-1.16-9.89-.84-15.07,1.16-19.07,8.37-49,8.37-49,5.53-22.92,9.53-39.52,7.95-60.7-.74-10-2.86-19.48-7.11-38.52-4.95-22.15-7.13-25.75-9.21-37.25-2.81-15.54-2-26.65.42-53.58,4.63-51,6.95-76.57,10.46-103,4.69-35.28,5.76-36.86,5.86-49.39.22-27.47-5.49-44.63-9.59-63.19-1.63-7.35-2.32-19.19-4.15-26-.92-3.47,1.87-4.89-.66-16.8-3.29-15.47-6.28-24.88-15.78-37.77-12.31-15.91-22.08-31.56-23.61-44.37-.88-7.4-.39-13.49.21-20.93,1.11-13.72,3.39-19.17,5.23-31.18a160.76,160.76,0,0,0,1.83-25"/><path class="cls-3" d="M195.32,547.47c-.33-1.12-1.39-4.76-1.8-5.65a115,115,0,0,1-8.17-25.47,312.25,312.25,0,0,0-12.82-41.8c-5-13.11-10.13-22-20.28-39.73-3.8-6.63-7.22-10.67-8.64-14.36-1-2.53,3.43-9,8.65-13,20.31-15.63,40.54-41,53.63-55.74,6.67-7.52,14.67-9.88,14.67-5.74"/><path class="cls-3" d="M250.42,248.14c-13,8.05-36.76,8-48.3,12.68-14,5.7-16.37,17.17-16.37,17.17l-13.41,22.87s-24.59,39.88-36,58.54c-8.2,13.38-24.77,36.9-32.63,50.82l-.1.17a19.34,19.34,0,0,0-.33,17.79A101.38,101.38,0,0,1,108,439.76c3.56,9.6,8.09,18.46,17.15,36.16,18.05,35.23,30.86,39.86,43.92,67.62A170.5,170.5,0,0,0,181.2,566.3"/><path class="cls-3" d="M180.2,566.05c-1.71,6.83-1.72,9.24-4.16,17.11-2.7,8.67-3.64,8.83-7.37,20.23-3.62,11.08-4.23,15.5-4.22,19.73a45.75,45.75,0,0,0,1.5,11.41c1.23,4.71,1.67,3.37,8.62,17.32,1.1,2.2,2.5,5.06,4.8,5.28a4.17,4.17,0,0,0,2.94-1.06c1.88-1.69,1.09-4.36,1.58-9.26a44.73,44.73,0,0,1,1.28-6.6c.88-3.62,1.66-5.66,3.05-11.28a23.36,23.36,0,0,0,.6-2.88c.26-2.17,0-3.83.11-6.6a33.75,33.75,0,0,1,.79-6.08c.24-1,1.34-5.25,2.6-5.21.35,0,9.7-3.92,13.12-12a27.14,27.14,0,0,0,1.85-13.67c-.27-2.28-1.79-7-3.66-12.35-3.43-9.7-8.06-21.29-8.5-23.3"/><path class="cls-3" d="M180.79,563.76c-.22.82-.41,1.58-.59,2.29"/><path class="cls-1" d="M181.76,646l-1.9-25.12,1.58-13.94c.35-1.07,2.6-6.69,3-4.68.59,3.23-.6,21.62.5,20.54,1.51-1.49,3.91-25.09,6.31-27.69l11.61-16.49h0A46.8,46.8,0,0,1,198,594.53L192.21,606,190,610.32l-1.24,7.73-.11,6.6-1.2,5.21Z"/><path class="cls-2" d="M183.24,652.59c0-4.62-6.6-14.92-7.93-20.47-1.8-7.56-.41-9.44.13-14.29a64.38,64.38,0,0,1,1.43-7.29c2.26-4.35,8-8.11,12.21-12.92,6.42-7.28,6.32-9.64,9.56-14.54a44.79,44.79,0,0,0,4.6-8.1"/></svg>