<svg id="Слой_5" data-name="Слой 5" xmlns="http://www.w3.org/2000/svg" viewBox="0 0 600 1200"><defs><style>.cls-1{fill:#fff;}.cls-1,.cls-2{stroke:#fff;stroke-linecap:round;stroke-linejoin:round;stroke-width:3px;}.cls-2{fill:none;}</style></defs><title>Sideways</title><path class="cls-1" d="M321.45,62.22s-84.11-16.4-103.42,20c-.48.91-4.1,5.17-10.36,7.41-7.26,2.59-12.08,2.75-3.78,5,1.51.41,8.36-.11,11.44-2.76,2-1.69-1.42,3.33-2,5.64-10.53,40.35-24.49,48.37-25.33,49.63s-10.22,12.89,0,27.11,2.22,45.34,9.33,57.34c0,0,2.91,6.63,11.93,10,.47.17-7.49-7.59-8.5-15.78-1.47-12,3.76-26,4.57-25.78s-2.05,14,.89,27c1.56,6.92,9.72,16.77,10,17,4.62,3,3.17,9.8-2.85,19.72-3.29,5.42-7.2,10.1-8.36,21.91-3.09,31.4-1.42,17.53,3.82,6.19,3.74-8.11,4-15.75,16.85-22a35.35,35.35,0,0,1-3,11.91l-.34.75,28.31-19.29a35,35,0,0,0,12.29-13.06c3.1-5.85,3.89-9.7,4-13.62.07-2.35-.1-4.73-.16-7.58l-2.82-25s13.25-8.22,22.8-20.5a44.72,44.72,0,0,0,5.43-9.72,8.45,8.45,0,0,0,.57-3.22c-.63,3.81-3.58,9.79-11.8,19.16-14.31,16.31-31.94,20-42.42,18.3a14.22,14.22,0,0,1-8.75-5.27c-1.9-3,0-6.51,0-8.84s-3.72-10.23-3.72-10.23l-1.86-2.33c-1.86-2.32,2.79-1.86.93-4.18s0-3.26,0-3.26,5.12-6.05.93-9.77-3.72-5.58-3.72-5.58,2.79-2.33,6.51-13-3.72-20-2.79-31.17S275.84,80.8,275.84,80.8c-29.77,25.58,8.84,62.55,8.84,62.55s0-3.94,7-5.34,9.31,3.72,10.24,13-12.1,13-12.1,13a4.52,4.52,0,0,1,3.06,4,6.6,6.6,0,0,1,.49-2.15c1.48-3.32,5.11-6,7.34-8.43.6-.65,1,18.22,3.15,34.92a128.76,128.76,0,0,0,4.28,19.14c1.1,3.93,9.37,15.56,9.63,15.4,22-13.47,50.56-36,53.48-100.29C373.56,75.25,321.45,62.22,321.45,62.22ZM206.63,147.41s-10.82,5.78-7.22,22.09c1.3,5.9-6.43,7.46-8.63-.31,0,0-4.45-13,12-21.93S206.63,147.41,206.63,147.41Z"/><path class="cls-2" d="M191.6,357.24a34.78,34.78,0,0,1-.82-8.8c.48-15.52,14.4-32.63,30.13-40.66,2.33-1.19,9.47-7.43,10.76-9.56,10.46-17.33,5-7,9.77-15.55l16.84-19.54a72.59,72.59,0,0,0,7.51-50.88l-2-9.07"/><path class="cls-2" d="M303,185.24a87,87,0,0,0,1.51,11.16l3.58,15.16c.86,5.26,6.16,11.52,9.05,16l.09.13c5.08,7.9,13.9,23.22,22.86,46.38,11.26,29.12-17.93,134.75-11.78,173.93,4.84,30.77,16.55,51.41,27.71,68.71.19.3,3.59.12,3.68.47,1.89,7.28,5.55,11.15,8.95,17.13,7,12.28,12.4,25.09,14.55,41.69,3.11,24-4.44,50.67-20.26,71.91-.48.65,2.21.93,2,1.67a181.14,181.14,0,0,1-14.73,32.2s-33.7-32-111.22,13.33c-2.14,1.25-5.27,5.31-6.09,3.32-3.46-8.43-10.06-20.11-11.32-29.87-.18-1.35,1.44-1.45,4-1.9.32-.06-.07-.65-.1-1-3.41-34.85,3.68-71,3.68-71a386,386,0,0,1,4.33-109.34c3.56-18.66-11.11-95.11-11.11-95.11a66,66,0,0,1-19.55-13.44"/><path class="cls-2" d="M264.23,1150c-28.92,3-47.71,4.21-48.56-.34-.89-4.74-3.56-14.52,11.55-14.52s18.26.89,51.11-27.11c2.79-2.37,5.06-8.16,14.59-17"/><path class="cls-2" d="M328.33,1106.07c0,9.06,3.2,20.38,3.82,29.42.4,5.69-1.52,13.64-15.15,14.07-2.22.07-4.18.08-5.93.07"/><path class="cls-2" d="M339.27,675.44s-14.71,121-10.94,130.78c3.61,9.34,45.65,107,8.46,235"/><path class="cls-2" d="M331,672.79s-27.6,82.47-28.19,96.69.59,25.48,6.52,37.33,23.26,55.71,19,104.3-11.33,99-5.4,110.22a103.08,103.08,0,0,0,13.41,19.75,89,89,0,0,0,6.73,6.92c7.12,6.52,23.12,23.7,5.93,35.56s-18.22,12.44-20.67,22.51-5.63,37.41-17.26,43.49c-5.92,3.09-12.14,2.92-18.68,5.28a34.76,34.76,0,0,1-20.45,1.15c-5.37-1.38-9.72-3.9-6.78-8.49a10.11,10.11,0,0,1,6-4.22l13.22-3.43s11.86-20.74,8.9-40.89,8.89.6-4.74-80c-12.72-75.19-40.4-163.8-44.05-199.4a5.83,5.83,0,0,0-.39-1.29,135.36,135.36,0,0,1-9.56-46.17l-1.68-73.67"/><path class="cls-2" d="M225.53,666.66s26.28-5.92,65.4-3.25"/><line class="cls-2" x1="364.92" y1="649.58" x2="356.04" y2="644.33"/><path class="cls-2" d="M343.41,654s.92,12.33,4.48,8.73,0-18.39,0-18.39l-1.45-13.44-14-18.74"/><polyline class="cls-2" points="334.56 666.66 334.56 651.33 327.71 631.11"/><path class="cls-2" d="M319.31,515.32c10.95-.11,23.15.3,36.73,1.39"/><path class="cls-2" d="M227.31,541.94s10.43-17,54.85-23.83"/><path class="cls-2" d="M238.2,512.5s-3.85-9.7-1.47-12.28,2.86,4.63,2.86,4.63"/><path class="cls-2" d="M262.13,381.32c-4.42-13.65-66-3.58-66-3.58l-5.33-27.05"/><path class="cls-2" d="M313.56,381.32s3.91,1,8.57,2.54c7.85,2.61,12.57-5.85,13.39-14.08l4-36.38"/><path class="cls-2" d="M262.13,255.08s57.17-39.84,70.87,2"/><path class="cls-2" d="M280.56,262.44a25,25,0,0,1,3.85-4.51c4.12-3.81,28.15-34.82,47.26,15s-21.19,86.52-21.19,86.52c2,7.21,8.3,65.78,7.71,96,.31,1.19.6,2.43.86,3.73,7.48,37.28-9.2,114.73-6.2,122.49,3.2,8.4,10.2,10.31,13.78,18.68s4.52,8.41,9.39,19.37c4.74,10.65,5.79,15,6.22,19.2.22,2.3,4.09,33.91-3,36.56-1.37.51-4.26-10-4.71-8.78-1.59,4.33-3,7.43-3.7,7.57a4.15,4.15,0,0,1-3-.75c-2-1.49.69-13.91-.12-16-1.24-3.51-11-23.78-11.61-25.72-.34-1-1.86-5.09-3.12-4.91-.35,0-8.05-9-9.76-7.74-1.19.79-1.11,12.33-1.45,19.14a6.68,6.68,0,0,1-5.18,6.29c-.58.12-1,.09-1.13-.21-.25-.55-.65-11.77-2-18.9-2-10.48-5.1-18.21-4.88-20.1.2-1.65,1.65-5.33-.89-22.66-3.52-6.33-2.36-17.4-3-30.56-.31-6-.69-12-1.21-18-1.34-15.33,2.37-50.84-3.17-86.44-8.65-55.59-40.3-102.51-29.63-157.51,2.23-11.52,10.7-23.52,37.93-30"/><path class="cls-2" d="M235.24,782.52s-.61-19,7.09-24.3"/><path class="cls-2" d="M309.27,268.74s9.36,5.93,13.57,13.63-6.27,39-6.27,39"/><path class="cls-2" d="M321.64,1017.38s-1.68,21.14,2.47,28.84"/></svg>