<svg id="Layer_2_копия_2" data-name="Layer 2 копия 2" xmlns="http://www.w3.org/2000/svg" viewBox="0 0 600 1200"><defs><style>.cls-1,.cls-2,.cls-3{fill:none;}.cls-1,.cls-2,.cls-3,.cls-4,.cls-5{stroke:#fff;stroke-width:3px;}.cls-1,.cls-2,.cls-4{stroke-miterlimit:10;}.cls-2,.cls-3,.cls-5{stroke-linecap:round;}.cls-3,.cls-5{stroke-linejoin:round;}.cls-4,.cls-5{fill:#fff;}</style></defs><title>Face</title><path class="cls-1" d="M276,205l-1.64-1.36c-3.63-3-4.14-3.17-6.87-6.39-5.73-6.81-7.49-13.41-9.75-22.4-.6-2.33-10.59-3.55-11-5.91-1.84-10.22,7.42-21.77,8.84-32.07.95-6.53,10.9-19.76,14.95-22.49,3.51-2.16,5.11-8.22,20.83-9.64,3.62-.38-.68-.51,3.28-.8,1.28-.63,22.14-3.74,27.08-.18,3.72,2.69,6.95,4,9.76,5.85,8.67,5.84,11.22,15,13,27.26a98.87,98.87,0,0,1-2.17,38c-2.27,9-4,15.59-9.76,22.4-2.7,3.2-3.23,3.39-6.79,6.32-1.64,1.35-3.9,3.28-7.31,6.34-2.81,2.53-5.56,6.06-10.08,7.56a38.4,38.4,0,0,1-17.19-.38c-4.52-1.5-6.77-4.65-9.59-7.18-2.35-2.11-4.16-3.69-5.59-4.9"/><path class="cls-2" d="M277.77,207.69a104.09,104.09,0,0,0,.61,10.59,90.35,90.35,0,0,0,2.2,12.66"/><line class="cls-1" x1="277.77" y1="207.68" x2="277.77" y2="207.69"/><path class="cls-3" d="M322.23,207.68a104.29,104.29,0,0,1-.61,10.6,90.35,90.35,0,0,1-2.2,12.66c-1.16,4.62-.8,4.77-2.7,9.14"/><path class="cls-1" d="M237.89,252.37c-3.66,4.92-10.24,25.69-9.43,35.4.59,6.92,1,11.6,3.14,17.58,3.3,9.13,14.93-5,36.07,8.43,23.79,13.66,19.36,34.39,23.79,34.53"/><path class="cls-1" d="M359.89,251.6c3.67,4.92,10.57,26.46,9.75,36.17-.58,6.92-1,11.6-3.14,17.58-3.3,9.13-14.92-5-36.06,8.43-23.79,13.66-19.36,35.61-23.79,35.76"/><path class="cls-2" d="M233.92,253.91c.38,2.23-4.17,6.61-7.81,18.53a203.07,203.07,0,0,0-7.44,37.2c.57,6.86-7.84,18.56-8.11,29.92-.45,18.47,4.34,28.07,6.22,32,4.46,11,4.43,2.91,11.62,26.46,2.13,9.15,29.93,8.83,48.33,23.91"/><path class="cls-2" d="M241.65,262.52a46.18,46.18,0,0,1,7.66,1.51,105.85,105.85,0,0,0,17.47,3.35,21,21,0,0,1,2.92.5c2.91.74,10.38,13.8,12.93,15.38"/><path class="cls-2" d="M213.31,549.1c2.86,1.1-1.73.45,1.8,1.57A186.85,186.85,0,0,0,243,557.09a272,272,0,0,0,28.46,3.07c7,.46,15.69.83,25.7.81"/><path class="cls-2" d="M211.07,555c1.77.48,33.57,5.72,53.13,29.55,9.37,11.42,21,50.36,29,55.85,2.24,1.55,5.28,1.26,6.83,1.26"/><path class="cls-2" d="M389.34,556.24c-13.51,3.37-37.92,11.37-51.86,28.35-9.37,11.42-21,50.36-29,55.85-2.24,1.55-5.28,1.26-6.82,1.26"/><path class="cls-2" d="M366.58,252.37c11.95,13.92,13.15,36.05,14.32,49.61,1.19,13.9,5.73,8.54,10.17,37.28,4.6,19.55-3.16,36.7-8.33,44.66A190.63,190.63,0,0,0,373.89,410c-3.65,14.8-5.42,22.15-9.05,35.59-9.4,4.42-27.38-1.33-48.12-5.58-12.64-2.59-28.76-6.52-40-18.07"/><path class="cls-2" d="M340.63,267.18c-6.42-.13-8.77.31-10.33.7a29.32,29.32,0,0,0-8.23,3.49"/><path class="cls-2" d="M412.16,453.87a21.34,21.34,0,0,0,.09,9,11.69,11.69,0,0,1,.57,4.55,9.71,9.71,0,0,1-2.13,4.82"/><path class="cls-2" d="M387.59,551.45c-9.12,2.85-24,4.22-33.43,5.64a272,272,0,0,1-28.46,3.07c-7,.46-17.5.83-27.51.81"/><path class="cls-2" d="M298.84,500.66a4.24,4.24,0,0,1,2.36,2c.36.78.08,1,.32,2.93s.54,2.2.41,3.46a2.47,2.47,0,0,1-2.23,2.69,2.65,2.65,0,0,1-1.64-1.93c-.16-1.5.45-3.56.3-3.6"/><path id="_Контур_2" data-name="&lt;Контур&gt;2" class="cls-2" d="M225.47,389c2.59,7.93,6.69,23.61,7.95,31.88,1.8,14.22,7.91,25.83,9.07,31.55,1.76,8.72,3,18.51-1.05,34.79-1.52,12.81-21.32,45.36-27,59-7.22,17.48-8.18,25.65-11.78,41.93-4.1,18.56-11.7,35.94-11.48,63.41.1,12.53-.48,8.94,1.45,48.74,3.51,26.41,5.83,51.93,10.47,103,2.45,26.93,3.23,38,.42,53.58-1.77,9.75-2.34,35.63-5.49,56.79a265.48,265.48,0,0,0-3,38.81v.62A415.53,415.53,0,0,0,201,1021.9a200.36,200.36,0,0,1,2.56,20.4c.31,5.18.58,9.55-.84,15.07-1,3.82-1.91,4.86-2.09,8.37-.2,3.88.81,5,1.25,11.3a36.54,36.54,0,0,1,0,7.54,30.71,30.71,0,0,1-2.93,9.63c-5.67,12.34-8.51,18.5-13.4,25.11a12.32,12.32,0,0,0-2.93,7.12,11.63,11.63,0,0,0,2.52,7.11c1.83,2.39,5,4.4,22.88,5.45,14.46.84,19-.09,23.16-2.37a13.65,13.65,0,0,0,5.86-5.17c2.17-3.84,1-7.34.42-14.65-.67-8.55.66-7.35,0-14.65-1-10.81-3.79-12.11-2.93-19.26.76-6.3,3-6,3.35-11.72.4-7-2.84-9.35-4.19-17.58-.77-4.75-.42-8.41.42-14.65,4.87-36.06,7.33-67.39,7.33-67.39,6.56-29.24,6.75-36.75,10.4-56.91,1-5.69,1.66-11.44,2.13-17.2a97.4,97.4,0,0,1,1.91-12.82c1.59-7,3.09-9.73,5-15.63,2.5-7.64,3-12.23,5.45-34.33,3.41-30.55,2.9-25.19,3.34-29.72,3.6-36.61-6-74.73,1.09-110.51,3.71-16.9,11.11-36.66,20.68-51.91,0-1,0-2.16,0-3.31"/><path class="cls-2" d="M238.22,1124.44s-9.6-6.66-13.66,1.56"/><path class="cls-2" d="M219.67,862.93a20.49,20.49,0,0,0,11.62,4.71c2.1.12,4.16.22,6.28-1"/><path class="cls-2" d="M241.18,974.66l-7.85,50q-.44,2.79-1.11,5.54l-3.6,14.85"/><path id="_Контур_2-2" data-name="&lt;Контур&gt;2" class="cls-2" d="M359.89,448.44c-1.77,8.72-3.9,22.76.19,39,1.53,12.8,21.33,45.36,27,59,7.22,17.47,8.19,25.65,11.78,41.92,4.1,18.56,11.7,35.94,11.48,63.41-.1,12.53.49,8.94-1.45,48.74-3.51,26.41-5.83,51.94-10.47,103-2.44,26.94-3.23,38.05-.41,53.58,1.76,9.75,2.33,35.64,5.48,56.79a264.21,264.21,0,0,1,3,38.81v.63a415.72,415.72,0,0,1-5.94,68.82,202.35,202.35,0,0,0-2.55,20.4c-.32,5.18-.59,9.54.83,15.07,1,3.82,1.91,4.86,2.1,8.37.2,3.88-.82,5-1.26,11.3a37.89,37.89,0,0,0,0,7.53,30.71,30.71,0,0,0,2.93,9.63c5.68,12.34,8.52,18.51,13.4,25.12a12.29,12.29,0,0,1,2.93,7.11,11.65,11.65,0,0,1-2.51,7.12c-1.83,2.38-5,4.4-22.88,5.44-14.46.84-19-.09-23.17-2.37a13.69,13.69,0,0,1-5.86-5.16c-2.17-3.85-1-7.34-.42-14.65.67-8.56-.66-7.35,0-14.66,1-10.8,3.79-12.11,2.93-19.25-.75-6.31-3-6-3.35-11.72-.4-7,2.85-9.36,4.19-17.58.78-4.75.43-8.41-.42-14.66-4.87-36.06-7.33-67.39-7.33-67.39-6.55-29.24-6.74-36.74-10.4-56.9-1-5.69-1.66-11.44-2.13-17.21a97.4,97.4,0,0,0-1.91-12.82c-1.58-7-3.08-9.72-5-15.63-2.5-7.64-3-12.22-5.44-34.32-3.42-30.56-2.9-25.19-3.35-29.73-3.6-36.61,6-74.72-1.08-110.51-3.72-16.89-11.12-36.66-20.69-51.9,0-1.06,0-2.16,0-3.31"/><path class="cls-2" d="M363.3,1124.68s9.6-6.66,13.67,1.56c0,0,7.14-5.8,11.14-.24,0,0,7.11-2.85,10.67.24"/><path class="cls-2" d="M381.85,863.17a20.42,20.42,0,0,1-11.62,4.71c-2.1.13-4.15.22-6.28-1"/><path class="cls-2" d="M360.34,974.91l7.86,50q.44,2.79,1.1,5.53l3.6,14.85"/><path class="cls-1" d="M276.26,206.28c2.12,12,4.32,28.39-1.93,35.5-5.92,5.63-10.13,5.64-21,8.52-11.72,1.56-20.59,1.8-21,1.89-7.8,1.24-7.8,1.24-15.55,2.92-8.84,1.93-15.63,4.77-18.89,7.11-5.73,4.12-12.9,10.71-15.27,16.59a76.4,76.4,0,0,0-4.29,17.78c-2.42,21.65,4.44,32,3.46,50.2-.4,7.47-5.29,20.69-7.9,48.32-1.25,13.13,1.31,23.74,0,40.22-.41,5,.17,12-1.68,21.48a101.34,101.34,0,0,1-5.58,18.42c-3.64,9.57-6.06,19.22-10.88,38.51-9.6,38.4-3,50.32-11.44,79.82a168.82,168.82,0,0,0-5.86,25.11c-1.32,8.89-.82,10.88-2.52,19.82s-2.61,9.18-5,20.93c-2.34,11.42-2.44,15.88-2,20.09a45.76,45.76,0,0,0,2.79,11.16c1.75,4.54,2,3.16,10.53,16.23,1.34,2.06,3.06,4.74,5.37,4.7,1.08-.08,3.39-5.84,3.32-10.77,0-.82,0-1.64.07-2.46.08-1.42.23-2.84.45-4.24.46-3.7,1-5.81,1.75-11.55a24,24,0,0,0,.27-2.93c0-2.19-.46-3.81-.64-6.57a33,33,0,0,1,.09-6.13c.13-1,.73-5.37,2-5.47.35,0,.83.27,1.63,1.85,2.44,4.77.7,7.44,2.8,11.16a9,9,0,0,0,4.46,4.18,7.34,7.34,0,0,0,5.3,0c.67-.27,2.27-1,2.51-2.23.29-1.47-1.49-2.58-2.68-4.08-1.07-1.34-1.54-2.82-1.47-12.24.06-8.14.43-9.46,0-13.82a48.79,48.79,0,0,0-1.12-6.7c-1.48-6.31-3.42-9.26-4.46-12.27-.55-1.57-1.87-6.09,1.95-19a115.17,115.17,0,0,1,10.61-24.56,311.24,311.24,0,0,0,17.86-39.91c4.83-13.18,6.84-23.21,10.88-43.25,5.18-25.73,2.76-23.24,7-41,4.75-20,7.41-29.59,12.21-51.6,2-9.12,1.09-24.32,1.09-24.32"/><path class="cls-2" d="M186,466.93c-.28,1.77,2.61,8.63,5.24,10.85"/><path class="cls-3" d="M138.33,672.59s-1.18,8,0,12.45,10.73,24.6,10.73,24.6"/><polyline class="cls-2" points="145.44 701.33 145.44 697.26 145.44 681.33"/><path class="cls-1" d="M324.83,206.28c-2.12,12-4.32,28.39,1.92,35.5,5.93,5.63,10.14,5.64,21,8.52,11.72,1.56,20.58,1.8,21,1.89,7.81,1.24,7.81,1.24,15.56,2.92,8.84,1.93,15.63,4.77,18.89,7.11,5.73,4.12,12.89,10.71,15.26,16.59a75.9,75.9,0,0,1,4.29,17.78c2.42,21.65-4.43,32-3.45,50.2.4,7.47,5.29,20.69,7.9,48.32,1.25,13.13-1.31,23.74.05,40.22.41,5-.17,12,1.68,21.48a100.55,100.55,0,0,0,5.58,18.42c3.64,9.57,6.06,19.22,10.88,38.51,9.6,38.4,3,50.32,11.44,79.82a171.35,171.35,0,0,1,5.86,25.11c1.32,8.89.82,10.88,2.52,19.82s2.61,9.18,5,20.93c2.34,11.42,2.44,15.88,1.95,20.09a46.22,46.22,0,0,1-2.79,11.16c-1.75,4.54-2,3.16-10.53,16.23-1.34,2.06-3.06,4.74-5.37,4.7-1.08-.08-3.39-5.84-3.32-10.77,0-.82,0-1.64-.08-2.46-.08-1.42-.23-2.84-.44-4.24-.46-3.7-1-5.81-1.75-11.55a24,24,0,0,1-.27-2.93c0-2.19.46-3.81.64-6.57a33,33,0,0,0-.09-6.13c-.13-1-.73-5.37-2-5.47-.35,0-.83.27-1.63,1.85-2.44,4.77-.7,7.44-2.8,11.16a9,9,0,0,1-4.46,4.18,7.34,7.34,0,0,1-5.3,0c-.67-.27-2.27-1-2.51-2.23-.29-1.47,1.49-2.58,2.68-4.08,1.07-1.34,1.54-2.82,1.47-12.24-.06-8.14-.43-9.46,0-13.82a47.31,47.31,0,0,1,1.12-6.7c1.48-6.31,3.42-9.26,4.46-12.27.55-1.57,1.87-6.09-1.95-19a115.68,115.68,0,0,0-10.61-24.56,311.24,311.24,0,0,1-17.86-39.91C404,530.7,402,520.67,398,500.63c-5.18-25.73-2.76-23.24-7-41-4.75-20-7.42-29.59-12.22-51.6-2-9.12-.83-11.4-.83-11.4"/><path class="cls-3" d="M462.75,672.59s1.19,8,0,12.45S452,709.64,452,709.64"/><polyline class="cls-2" points="455.64 701.33 455.64 697.26 455.64 681.33"/><path class="cls-4" d="M236.48,407.65s3.44-13.44-19.77-23.89c-11.11-5-9,1.09-3.86,8.81,2.42,3.61,2.82,10,5.57,13.32a17,17,0,0,0,9.37,5.38"/><path class="cls-4" d="M236,404.48s8.42,17.26-4.33,26.39c-6.11,4.37-6.46-.31-5.16-6.38.61-2.84-.95-7.62,0-10.28A6.66,6.66,0,0,1,231.2,410"/><rect class="cls-4" x="230.32" y="403.62" width="5.02" height="12.74" rx="2.51" transform="translate(471.48 3.36) rotate(60)"/><path class="cls-5" d="M291.93,104.72c-5.18,1-13.65,5.8-20,12.5-7.51,7.88-12.63,18-13,20.5a113.28,113.28,0,0,0-.85,15.17c.07,5.42-6,8.89-3.3,17.78,1.32,4.39,5.16,1.29,5.44,2.73.22,1.11.46,2.22.71,3.32,2.09,9.23,3.71,16,9,23,2.51,3.31,3,3.48,6.33,6.56-.67,5.18,1.25,5-.07,10-2.72,10.28-1.74-8.8-7.19-5.63l-.16.09A26.47,26.47,0,0,1,245,212c-8.49-3.72-21-11.41-19-33.19,2.16-13.32,3.84-5.21,2.36-18-.89-29.33,10.51-25.91,14.3-42.87,3.19-14.29,6.45-20.37,13.07-28.94.33-.42,7.33,13.52,7.67,13.1s-5.17-16.85-4.81-17.25c4-4.38-1.6-11.67,7.95-19.74,10.86-9.19,47.33-7.39,61.75-2.08,8,3.14,11.34,10.53,17.11,16.89,7.7,12.17,8.36,22.36,11.86,38,3.79,17,6.14,22.2,10.59,46.65,1.95,10.7-7.12,17.56-6.89,24.66,13.78,36.73-26.06,50.69-29.57,45.46-7.69,1.8-11.41,6.9-14.13-3.38-.72-2.74-.41-1,1.2-6.08.15-.46,16.4-19.42,16.1-19.05-2.61,3.16-14.62,15-14.49,14.61,1-3.23,2.36-11.35,2.12-13.21h0a53.73,53.73,0,0,0,7.7-8c5.29-7,6.91-13.77,9-23,2.94-12.78-7.58-14.37-9.19-27.39-1.65-12.58,7.19-33.61-.81-39.61-2.59-1.94-5.57-3.24-9-6-.66-.53-1.45-27.42-29.89-20.46-.35.09,19.85-.59,25.18,10.07,1.77,3.54,5.78,8.85-.41,9-7.78.2-20.56,2.2-22.88,2.38"/><path class="cls-2" d="M241.06,406.05s14.69-8.73,36.87,3.94c11.09,6.34,25.26,7.84,36.65,7.76a121.17,121.17,0,0,0,20-1.75"/><path class="cls-2" d="M366.32,436s-31.93-2.62-46.85-8.39"/><path class="cls-2" d="M387.59,375.31c-2.81,15.13-26.76,21.27-38.48,14.51"/><path class="cls-2" d="M218.88,376.06c6.27,15.2,28.31,21.27,40,14.52"/><path class="cls-2" d="M216.26,1126.24s-4.74-4.12-8.3,0c-.61.72-1.31,1.78-2,1.47-3.84-1.71-10.95,0-10.95,0"/><path class="cls-2" d="M231.6,305.35s70.78,99.33,135,.13"/><path class="cls-2" d="M300.54,406.35s-4,7.88-12.58,7.25"/></svg>