<svg id="Layer_2" data-name="Layer 2" xmlns="http://www.w3.org/2000/svg" viewBox="0 0 600 1200"><defs><style>.cls-1{fill:#fff;}.cls-1,.cls-2,.cls-3{stroke:#fff;stroke-miterlimit:10;}.cls-2,.cls-3{fill:none;stroke-width:3px;}.cls-3{stroke-linecap:round;}</style></defs><path class="cls-1" d="M371.33,212.42a144.848,144.848,0,0,1-2.93,32.44c-.88,4.33-1.85,8.17-2.78,11.45-8.98-1.86-13.69-2.93-18.99-6.01a41.418,41.418,0,0,1-13.61-12.77c-1.04-1.57-3.56-5.62-6.28-15.9a121.82,121.82,0,0,1-3-15.35l-.07-.07c3.28-3.01,3.77-3.2,6.26-6.49,5.29-6.99,6.91-13.77,9-23a112.461,112.461,0,0,0,2-39c-1.65-12.58-4-22-12-28-2.59-1.94-5.57-3.24-9-6-4.55-3.66-6.26-9.08-7-13a35.008,35.008,0,0,1-5,7,20.278,20.278,0,0,1-6,5c-3.72,1.81-7.01,1.77-10,2-9.95.77-16.76,2.78-20,5-8,6-11.35,15.42-13,28a112.461,112.461,0,0,0,2,39c2.09,9.23,3.71,16.01,9,23,2.51,3.31,2.98,3.48,6.33,6.56a121.82,121.82,0,0,1-3,15.35c-2.72,10.28-5.24,14.33-6.28,15.9a41.418,41.418,0,0,1-13.61,12.77c-5.3,3.08-10.01,4.15-18.99,6.01-.93-3.28-1.9-7.12-2.78-11.45a144.848,144.848,0,0,1-2.93-32.44c.23-7.1,1.2-13.1,3.14-25.12,2.16-13.32,3.29-16.72,5.24-27.42,4.45-24.45,1.86-24.9,5.65-41.86,3.5-15.66,5.77-25.23,14.02-34.53a55.864,55.864,0,0,1,20.93-14.44,64.744,64.744,0,0,1,44.7,0,55.864,55.864,0,0,1,20.93,14.44c8.25,9.3,10.52,18.87,14.02,34.53,3.79,16.96,1.2,17.41,5.65,41.86,1.95,10.7,3.08,14.1,5.24,27.42C370.13,199.32,371.1,205.32,371.33,212.42ZM350.6,164.7c.94-2.28,4.24-10.32,1.68-12.35a2.751,2.751,0,0,0-2.09-.42c-.49.1-2.01.56-3.77,5.65a38.372,38.372,0,0,0-1.89,9.84c-.32,4.05-.5,6.25.21,6.49C345.97,174.32,348.97,168.67,350.6,164.7Zm-95.34,9.21c.71-.24.53-2.44.21-6.49a38.372,38.372,0,0,0-1.89-9.84c-1.76-5.09-3.28-5.55-3.77-5.65a2.751,2.751,0,0,0-2.09.42c-2.56,2.03.74,10.07,1.68,12.35C251.03,168.67,254.03,174.32,255.26,173.91Z"/><path class="cls-2" d="M277.77,207.68c-.56-.52-1.06-.99-1.51-1.4-3.35-3.08-3.82-3.25-6.33-6.56-5.29-6.99-6.91-13.77-9-23a112.461,112.461,0,0,1-2-39c1.65-12.58,5-22,13-28,3.24-2.22,10.05-4.23,20-5,2.99-.23,6.28-.19,10-2a20.278,20.278,0,0,0,6-5,35.008,35.008,0,0,0,5-7c.74,3.92,2.45,9.34,7,13,3.43,2.76,6.41,4.06,9,6,8,6,10.35,15.42,12,28a112.461,112.461,0,0,1-2,39c-2.09,9.23-3.71,16.01-9,23-2.49,3.29-2.98,3.48-6.26,6.49-1.51,1.39-3.6,3.37-6.74,6.51-2.6,2.6-4.83,3.46-9,5a32.5,32.5,0,0,1-16,0c-4.17-1.54-6.4-2.4-9-5-2.17-2.17-3.84-3.79-5.16-5.03"/><path class="cls-2" d="M276.26,206.28a121.82,121.82,0,0,1-3,15.35c-2.72,10.28-5.24,14.33-6.28,15.9a41.418,41.418,0,0,1-13.61,12.77c-5.3,3.08-10.01,4.15-18.99,6.01-.43.09-.86.18-1.31.27-7.37,1.52-7.95,1.04-15.7,2.72-8.84,1.93-13.27,2.89-16.53,5.23-5.73,4.12-8.1,10.03-10.47,15.91a59.881,59.881,0,0,0-3.97,15.7c-2.42,21.65-3.63,32.48-4.61,50.65-.4,7.47-1.71,21.28-4.32,48.91-1.25,13.13-2.27,23.15-3.63,39.63-.41,4.96.17,12-1.68,21.48a100.727,100.727,0,0,1-5.58,18.42c-3.64,9.57-6.06,19.22-10.88,38.51-9.6,38.4-3.01,50.32-11.44,79.82a170.038,170.038,0,0,0-5.86,25.11c-1.32,8.89-.82,10.88-2.52,19.82-1.69,8.92-2.61,9.18-5.02,20.93-2.34,11.42-2.44,15.88-1.95,20.09a45.73,45.73,0,0,0,2.79,11.16c1.75,4.54,2.04,3.16,10.53,16.23,1.34,2.06,3.06,4.74,5.37,4.7a4.148,4.148,0,0,0,2.8-1.39c1.68-1.89.59-4.45.52-9.38a44.737,44.737,0,0,1,.52-6.7c.46-3.7,1-5.81,1.75-11.55a24.426,24.426,0,0,0,.27-2.93c.01-2.19-.46-3.81-.64-6.57a32.646,32.646,0,0,1,.09-6.13c.13-1.01.73-5.37,1.99-5.47.35-.03.83.27,1.63,1.85,2.44,4.77.7,7.44,2.8,11.16a8.931,8.931,0,0,0,4.46,4.18,7.393,7.393,0,0,0,5.3,0c.67-.27,2.27-.97,2.51-2.23.29-1.47-1.49-2.58-2.68-4.08-1.07-1.34-1.54-2.82-1.47-12.24.06-8.14.43-9.46-.03-13.82a48.168,48.168,0,0,0-1.12-6.7c-1.48-6.31-3.42-9.26-4.46-12.27-.55-1.57-1.87-6.09,1.95-18.98a115.369,115.369,0,0,1,10.61-24.56,310.95,310.95,0,0,0,17.86-39.91c4.83-13.18,6.84-23.21,10.88-43.25,5.18-25.73,2.76-23.24,6.98-41.03,4.75-20.04,8.87-27.66,13.67-49.67,1.99-9.12,4.19-20.09,4.19-20.09.42-2.54.87-4.92,1.3-7.14"/><path class="cls-2" d="M255.26,173.91c-1.23.41-4.23-5.24-5.86-9.21-.94-2.28-4.24-10.32-1.68-12.35a2.751,2.751,0,0,1,2.09-.42c.49.1,2.01.56,3.77,5.65a38.372,38.372,0,0,1,1.89,9.84C255.79,171.47,255.97,173.67,255.26,173.91Z"/><path class="cls-2" d="M323.74,206.28a121.82,121.82,0,0,0,3,15.35c2.72,10.28,5.24,14.33,6.28,15.9a41.418,41.418,0,0,0,13.61,12.77c5.3,3.08,10.01,4.15,18.99,6.01.43.09.86.18,1.31.27,7.37,1.52,7.95,1.04,15.7,2.72,8.84,1.93,13.27,2.89,16.53,5.23,5.73,4.12,8.1,10.03,10.47,15.91a59.881,59.881,0,0,1,3.97,15.7c2.42,21.65,3.63,32.48,4.61,50.65.4,7.47,1.71,21.28,4.32,48.91,1.25,13.13,2.27,23.15,3.63,39.63.41,4.96-.17,12,1.68,21.48a100.727,100.727,0,0,0,5.58,18.42c3.64,9.57,6.06,19.22,10.88,38.51,9.6,38.4,3.01,50.32,11.44,79.82a170.038,170.038,0,0,1,5.86,25.11c1.32,8.89.82,10.88,2.52,19.82,1.69,8.92,2.61,9.18,5.02,20.93,2.34,11.42,2.44,15.88,1.95,20.09a45.73,45.73,0,0,1-2.79,11.16c-1.75,4.54-2.04,3.16-10.53,16.23-1.34,2.06-3.06,4.74-5.37,4.7a4.148,4.148,0,0,1-2.8-1.39c-1.68-1.89-.59-4.45-.52-9.38a44.737,44.737,0,0,0-.52-6.7c-.46-3.7-1-5.81-1.75-11.55a24.426,24.426,0,0,1-.27-2.93c-.01-2.19.46-3.81.64-6.57a32.646,32.646,0,0,0-.09-6.13c-.13-1.01-.73-5.37-1.99-5.47-.35-.03-.83.27-1.63,1.85-2.44,4.77-.7,7.44-2.8,11.16a8.931,8.931,0,0,1-4.46,4.18,7.393,7.393,0,0,1-5.3,0c-.67-.27-2.27-.97-2.51-2.23-.29-1.47,1.49-2.58,2.68-4.08,1.07-1.34,1.54-2.82,1.47-12.24-.06-8.14-.43-9.46.03-13.82a48.168,48.168,0,0,1,1.12-6.7c1.48-6.31,3.42-9.26,4.46-12.27.55-1.57,1.87-6.09-1.95-18.98a115.369,115.369,0,0,0-10.61-24.56,310.95,310.95,0,0,1-17.86-39.91c-4.83-13.18-6.84-23.21-10.88-43.25-5.18-25.73-2.76-23.24-6.98-41.03-4.75-20.04-8.87-27.66-13.67-49.67-1.99-9.12-4.19-20.09-4.19-20.09-.42-2.54-.87-4.92-1.3-7.14"/><path class="cls-2" d="M365.62,256.31c.93-3.28,1.9-7.12,2.78-11.45a144.848,144.848,0,0,0,2.93-32.44c-.23-7.1-1.2-13.1-3.14-25.12-2.16-13.32-3.29-16.72-5.24-27.42-4.45-24.45-1.86-24.9-5.65-41.86-3.5-15.66-5.77-25.23-14.02-34.53a55.864,55.864,0,0,0-20.93-14.44,64.744,64.744,0,0,0-44.7,0,55.864,55.864,0,0,0-20.93,14.44c-8.25,9.3-10.52,18.87-14.02,34.53-3.79,16.96-1.2,17.41-5.65,41.86-1.95,10.7-3.08,14.1-5.24,27.42-1.94,12.02-2.91,18.02-3.14,25.12a144.848,144.848,0,0,0,2.93,32.44c.88,4.33,1.85,8.17,2.78,11.45"/><path class="cls-2" d="M344.74,173.91c1.23.41,4.23-5.24,5.86-9.21.94-2.28,4.24-10.32,1.68-12.35a2.751,2.751,0,0,0-2.09-.42c-.49.1-2.01.56-3.77,5.65a38.372,38.372,0,0,0-1.89,9.84C344.21,171.47,344.03,173.67,344.74,173.91Z"/><path class="cls-3" d="M277.77,207.69a104.852,104.852,0,0,0,.61,10.59,90.58,90.58,0,0,0,2.2,12.66,86.209,86.209,0,0,0,4.61,13.5"/><line class="cls-2" x1="277.77" y1="207.68" x2="277.77" y2="207.69"/><path class="cls-3" d="M288.22,252.19a55.375,55.375,0,0,0,2.72,6.83,21.279,21.279,0,0,0,3.51,5.49,7.594,7.594,0,0,0,5.55,2.85"/><path class="cls-2" d="M322.23,207.68a105.068,105.068,0,0,1-.61,10.6,90.58,90.58,0,0,1-2.2,12.66,86.209,86.209,0,0,1-4.61,13.5"/><path class="cls-3" d="M311.78,252.19a55.375,55.375,0,0,1-2.72,6.83,21.279,21.279,0,0,1-3.51,5.49,7.594,7.594,0,0,1-5.55,2.85"/><path class="cls-2" d="M227.216,257.623c.407,2.979.67,5.778.831,8.377.576,9.316-.4,12.061.418,21.767.586,6.925.982,11.606,3.14,17.582,3.3,9.128,16.423,20.695,29.581,30.349,9.855,7.23,22.56,20.115,26.233,22.325A26.73,26.73,0,0,0,300,361.651"/><path class="cls-3" d="M216.09,259.581c.831,4.915,1.42,9.471,1.84,13.6a219.972,219.972,0,0,1,.279,40.744c-1.19,13.906-2.519,14.04-2.79,25.4-.442,18.475,2.87,26.774,4.744,30.7A33.1,33.1,0,0,0,246.4,390.4c4.4.7,7.442.347,28.186-3.907,12.634-2.59,12.829-2.731,15.349-3.069a85.671,85.671,0,0,1,10.07-.751"/><path class="cls-3" d="M233.419,265.93a36.995,36.995,0,0,0,8.232,1.954c5.838.69,8.019-.491,17.721-.7,6.413-.136,8.768.309,10.326.7a29.1,29.1,0,0,1,8.232,3.488"/><path class="cls-3" d="M190.581,454.163a21.546,21.546,0,0,1-2.721,8.581,11.64,11.64,0,0,0-1.883,4.186,9.671,9.671,0,0,0,.628,5.233"/><path class="cls-3" d="M233.341,385.644a159.522,159.522,0,0,0,1.822,24.984c1.845,12.007,4.124,17.458,5.232,31.186.6,7.435,1.092,13.525.21,20.93-1.527,12.808-6.036,20.075-14.652,37.256-1.9,3.8-10.9,21.743-16.534,35.372-7.221,17.475-10.216,31.025-13.814,47.3-4.1,18.561-9.012,40.768-8.791,68.233.1,12.533,1.173,14.116,5.86,49.395,3.51,26.409,5.828,51.931,10.466,102.977,2.447,26.937,3.23,38.044.418,53.581-2.08,11.5-4.262,15.1-9.209,37.256-4.25,19.032-6.375,28.547-7.116,38.512-1.578,21.185,2.426,37.786,7.953,60.7,0,0,7.212,29.9,8.372,48.976.315,5.182.581,9.548-.837,15.07-.981,3.821-1.912,4.861-2.093,8.372-.2,3.88.816,4.956,1.256,11.3a37.254,37.254,0,0,1,0,7.534,30.746,30.746,0,0,1-2.931,9.628c-5.676,12.339-8.515,18.508-13.4,25.117a12.3,12.3,0,0,0-2.93,7.116,11.654,11.654,0,0,0,2.512,7.116c1.832,2.383,5,4.4,22.883,5.442,14.458.843,19.018-.089,23.163-2.372a13.644,13.644,0,0,0,5.861-5.163c2.173-3.844.992-7.339.418-14.651-.671-8.553.665-7.348,0-14.651-.984-10.806-3.786-12.112-2.93-19.256.756-6.306,3.022-5.975,3.349-11.721.4-6.982-2.841-9.353-4.186-17.581-.777-4.751-.425-8.408.418-14.652,4.87-36.062,10.465-60.278,10.465-60.279,7.083-30.653,7.912-29.889,8.372-38.093.346-6.157.036-9.369.7-35.441a97.824,97.824,0,0,1,2.233-20.512c1.587-7.036,3.087-9.722,5.023-15.628,2.5-7.641,2.971-12.224,5.442-34.326,3.415-30.553,2.9-25.19,3.349-29.721,3.6-36.613,2.447-35.145,4.6-53.581,3.283-28.052,4.924-42.078,9.628-57.349a145.876,145.876,0,0,0,6.7-29.3c.282-2.468.847-8.011.837-22.186q0-1.587-.012-3.311"/><path class="cls-3" d="M214.86,846.605a14.288,14.288,0,0,0-.209,10.046,14.873,14.873,0,0,0,5.023,6.279,20.483,20.483,0,0,0,11.617,4.71c2.1.124,4.154.217,6.279-1.047a9.3,9.3,0,0,0,3.872-4.919"/><path class="cls-3" d="M208.333,538.008c2.852,1.095,6.065,2.242,9.6,3.364a186.157,186.157,0,0,0,27.907,6.419A271.551,271.551,0,0,0,274.3,550.86c7.031.46,15.687.83,25.7.815"/><path class="cls-3" d="M196.306,579.505c2.619.715,5.523,1.552,8.543,2.611,18.9,6.629,23.8,7.327,34.6,12.279a98.625,98.625,0,0,1,19.78,12.349,99.618,99.618,0,0,1,15.593,15.593c7.639,8.477,10.4,12.615,18.348,18.105,2.244,1.549,5.277,1.254,6.826,1.254"/><path class="cls-3" d="M300,487.233a4.22,4.22,0,0,0-2.36,1.988c-.361.774-.082,1.027-.314,2.93-.221,1.8-.547,2.193-.419,3.454A2.473,2.473,0,0,0,300,498.221"/><path class="cls-2" d="M372.784,257.623c-.407,2.979-.67,5.778-.831,8.377-.576,9.316.4,12.061-.418,21.767-.586,6.925-.982,11.606-3.14,17.582-3.3,9.128-16.423,20.695-29.581,30.349-9.855,7.23-22.56,20.115-26.233,22.325A26.73,26.73,0,0,1,300,361.651"/><path class="cls-3" d="M383.91,259.581c-.831,4.915-1.42,9.471-1.84,13.6a219.972,219.972,0,0,0-.279,40.744c1.19,13.906,2.519,14.04,2.79,25.4.442,18.475-2.87,26.774-4.744,30.7A33.1,33.1,0,0,1,353.605,390.4c-4.4.7-7.442.347-28.186-3.907-12.634-2.59-12.829-2.731-15.349-3.069a85.671,85.671,0,0,0-10.07-.751"/><path class="cls-3" d="M366.581,265.93a36.995,36.995,0,0,1-8.232,1.954c-5.838.69-8.019-.491-17.721-.7-6.413-.136-8.768.309-10.326.7a29.1,29.1,0,0,0-8.232,3.488"/><path class="cls-3" d="M409.419,454.163a21.546,21.546,0,0,0,2.721,8.581,11.64,11.64,0,0,1,1.883,4.186,9.671,9.671,0,0,1-.628,5.233"/><path class="cls-3" d="M366.659,385.644a159.522,159.522,0,0,1-1.822,24.984c-1.845,12.007-4.124,17.458-5.232,31.186-.6,7.435-1.092,13.525-.21,20.93,1.527,12.808,6.036,20.075,14.652,37.256,1.9,3.8,10.9,21.743,16.534,35.372,7.221,17.475,10.216,31.025,13.814,47.3,4.1,18.561,9.012,40.768,8.791,68.233-.1,12.533-1.173,14.116-5.86,49.395-3.51,26.409-5.828,51.931-10.466,102.977-2.447,26.937-3.23,38.044-.418,53.581,2.08,11.5,4.262,15.1,9.209,37.256,4.25,19.032,6.375,28.547,7.116,38.512,1.578,21.185-2.426,37.786-7.953,60.7,0,0-7.212,29.9-8.372,48.976-.315,5.182-.581,9.548.837,15.07.981,3.821,1.912,4.861,2.093,8.372.2,3.88-.816,4.956-1.256,11.3a37.254,37.254,0,0,0,0,7.534,30.746,30.746,0,0,0,2.931,9.628c5.676,12.339,8.515,18.508,13.395,25.117a12.3,12.3,0,0,1,2.93,7.116,11.654,11.654,0,0,1-2.512,7.116c-1.832,2.383-5,4.4-22.883,5.442-14.458.843-19.018-.089-23.163-2.372a13.644,13.644,0,0,1-5.861-5.163c-2.173-3.844-.992-7.339-.418-14.651.671-8.553-.665-7.348,0-14.651.984-10.806,3.786-12.112,2.93-19.256-.756-6.306-3.022-5.975-3.349-11.721-.4-6.982,2.841-9.353,4.186-17.581.777-4.751.425-8.408-.418-14.652-4.87-36.062-10.465-60.278-10.465-60.279-7.083-30.653-7.912-29.889-8.372-38.093-.346-6.157-.036-9.369-.7-35.441a97.824,97.824,0,0,0-2.233-20.512c-1.587-7.036-3.087-9.722-5.023-15.628-2.5-7.641-2.971-12.224-5.442-34.326-3.415-30.553-2.9-25.19-3.349-29.721-3.6-36.613-2.447-35.145-4.6-53.581-3.283-28.052-4.924-42.078-9.628-57.349a145.876,145.876,0,0,1-6.7-29.3c-.282-2.468-.847-8.011-.837-22.186q0-1.587.012-3.311"/><path class="cls-3" d="M385.14,846.605a14.288,14.288,0,0,1,.209,10.046,14.873,14.873,0,0,1-5.023,6.279,20.483,20.483,0,0,1-11.617,4.71c-2.1.124-4.154.217-6.279-1.047a9.3,9.3,0,0,1-3.872-4.919"/><path class="cls-3" d="M391.667,538.008c-2.852,1.095-6.065,2.242-9.6,3.364a186.157,186.157,0,0,1-27.907,6.419A271.551,271.551,0,0,1,325.7,550.86c-7.031.46-15.687.83-25.7.815"/><path class="cls-3" d="M403.694,579.505c-2.619.715-5.523,1.552-8.543,2.611-18.9,6.629-23.8,7.327-34.6,12.279a98.625,98.625,0,0,0-19.78,12.349,99.618,99.618,0,0,0-15.593,15.593c-7.639,8.477-10.4,12.615-18.348,18.105-2.244,1.549-5.277,1.254-6.826,1.254"/><path class="cls-3" d="M300,487.233a4.22,4.22,0,0,1,2.36,1.988c.361.774.082,1.027.314,2.93.221,1.8.547,2.193.419,3.454A2.473,2.473,0,0,1,300,498.221"/></svg>